<?xml version="1.0" encoding="utf-8"?>
<!-- Generator: Adobe Illustrator 25.2.0, SVG Export Plug-In . SVG Version: 6.00 Build 0)  -->
<svg version="1.1" id="Lager_1" xmlns="http://www.w3.org/2000/svg" xmlns:xlink="http://www.w3.org/1999/xlink" x="0px" y="0px"
	 viewBox="0 0 355.2 71.5" enable-background="new 0 0 355.2 71.5" xml:space="preserve">
<g>
	<path fill="#FFFFFF" d="M0.4,1.1h30c10,0,16.3,6.9,16.3,15.4c0,6.5-2.7,11.5-8.8,14v0.2c6,1.6,7.7,7.4,8.1,13
		c0.2,3.5,0.2,10.1,2.3,13.2H36.1c-1.5-3.5-1.3-8.9-1.9-13.3c-0.9-5.8-3.1-8.4-9.3-8.4H12.7v21.8H0.4V1.1z M12.7,26.3h13.4
		c5.5,0,8.4-2.3,8.4-8c0-5.4-3-7.7-8.4-7.7H12.7V26.3z"/>
	<path fill="#FFFFFF" d="M60,39.3c0.3,7,3.7,10.2,9.9,10.2c4.4,0,8-2.7,8.7-5.2h9.7c-3.1,9.5-9.7,13.6-18.9,13.6
		c-12.7,0-20.6-8.7-20.6-21.2c0-12.1,8.3-21.3,20.6-21.3c13.7,0,20.4,11.5,19.6,23.9H60z M78,32.3c-1-5.6-3.4-8.6-8.8-8.6
		c-7,0-9,5.5-9.2,8.6H78z"/>
	<path fill="#FFFFFF" d="M120,30.7c-0.7-4.5-3.6-6.9-8.2-6.9c-7.1,0-9.4,7.2-9.4,13.1c0,5.8,2.3,12.7,9.2,12.7
		c5.1,0,8.1-3.3,8.8-8.2H131c-1.4,10.7-8.8,16.5-19.4,16.5c-12.2,0-20.4-8.6-20.4-20.7c0-12.6,7.5-21.8,20.6-21.8
		c9.5,0,18.2,5,18.9,15.3H120z"/>
	<path fill="#FFFFFF" d="M134.2,16.5h10.5v7.5h0.2c2-5.1,7.5-8.6,12.9-8.6c0.8,0,1.7,0.2,2.4,0.4v10.3c-1-0.2-2.7-0.4-4-0.4
		c-8.1,0-10.9,5.8-10.9,12.9v18.2h-11.1V16.5z"/>
	<path fill="#FFFFFF" d="M200.7,56.8h-10.5v-5.6H190c-2.8,4.5-7.6,6.7-12.3,6.7c-11.8,0-14.7-6.6-14.7-16.6V16.5H174v22.8
		c0,6.6,1.9,9.9,7.1,9.9c6,0,8.6-3.4,8.6-11.5V16.5h11.1V56.8z"/>
	<path fill="#FFFFFF" d="M217.4,10.2h-11.1V1.1h11.1V10.2z M206.4,16.5h11.1v40.3h-11.1V16.5z"/>
	<path fill="#FFFFFF" d="M238.6,16.5h8.1v7.4h-8.1v20c0,3.7,0.9,4.7,4.7,4.7c1.2,0,2.3-0.1,3.4-0.3v8.7c-1.9,0.3-4.3,0.4-6.5,0.4
		c-6.8,0-12.7-1.6-12.7-9.6V23.9h-6.7v-7.4h6.7V4.4h11.1V16.5z"/>
	<path fill="#FFFFFF" d="M258.5,16.5h11.2l-8.6,40.3H250L258.5,16.5z M270.9,10.2h-11.2l2-9.1H273L270.9,10.2z"/>
	<path fill="#FFFFFF" d="M277.8,23.9h-6.5l1.6-7.4h6.6c2.2-10.3,4.1-15.8,15.7-15.8c2.4,0,4.8,0.2,7.3,0.6l-1.7,8
		c-1.2-0.1-2.4-0.2-3.6-0.2c-5.5,0-5.4,2.8-6.6,7.5h7.9l-1.6,7.4h-8l-6.9,32.9h-11.1L277.8,23.9z"/>
	<path fill="#FFFFFF" d="M315.2,62.5c-3.8,6.9-7.3,8.5-15.7,8.5c-1.9,0-4-0.3-5.9-0.4l1.9-9.2c1.5,0,3,0.5,4.5,0.5
		c5.2,0,5.8-3.4,7.3-5.5l-7.2-39.9h11.4l3.5,28.9h0.2l14-28.9h11.7L315.2,62.5z"/>
	<g>
		<path fill="#FFFFFF" d="M343.9,2.5h-2.8v7.6h-1.8V2.5h-2.8V1.1h7.3V2.5z M349.9,7.5l2.5-6.4h2.5v9h-1.6v-7h0l-2.7,7h-1.2l-2.7-7h0
			v7h-1.6v-9h2.5L349.9,7.5z"/>
	</g>
</g>
</svg>
